<?xml version="1.0" encoding="UTF-8"?>
<svg xmlns="http://www.w3.org/2000/svg" xmlns:xlink="http://www.w3.org/1999/xlink" width="40px" height="40px" viewBox="0 0 40 40" version="1.1">
<g id="surface1">
<path style=" stroke:none;fill-rule:nonzero;fill:rgb(89.803922%,66.666667%,9.019608%);fill-opacity:1;" d="M 40 20 C 40 8.953125 31.046875 0 20 0 C 8.953125 0 0 8.953125 0 20 C 0 31.046875 8.953125 40 20 40 C 31.046875 40 40 31.046875 40 20 Z M 40 20 "/>
<path style=" stroke:none;fill-rule:nonzero;fill:rgb(100%,100%,100%);fill-opacity:1;" d="M 19.96875 10.097656 C 19.695312 9.949219 19.359375 9.960938 19.097656 10.132812 L 11.429688 15.113281 L 8.59375 15.113281 C 8.121094 15.113281 7.742188 15.496094 7.742188 15.964844 L 7.742188 23.441406 C 7.742188 23.914062 8.121094 24.296875 8.59375 24.296875 L 11.429688 24.296875 L 19.097656 29.277344 C 19.238281 29.367188 19.402344 29.414062 19.5625 29.414062 C 19.703125 29.414062 19.84375 29.378906 19.96875 29.3125 C 20.246094 29.160156 20.417969 28.875 20.417969 28.5625 L 20.417969 10.847656 C 20.417969 10.535156 20.246094 10.246094 19.96875 10.097656 Z M 19.96875 10.097656 "/>
<path style=" stroke:none;fill-rule:nonzero;fill:rgb(100%,100%,100%);fill-opacity:1;" d="M 22.792969 25.738281 C 22.863281 25.738281 22.9375 25.726562 23.007812 25.699219 C 24.960938 24.941406 26.273438 22.597656 26.273438 19.867188 C 26.273438 17.449219 25.210938 15.265625 23.5625 14.300781 C 23.277344 14.132812 22.910156 14.230469 22.746094 14.515625 C 22.578125 14.800781 22.671875 15.167969 22.957031 15.332031 C 24.246094 16.085938 25.078125 17.867188 25.078125 19.863281 C 25.078125 22.070312 24.046875 24.011719 22.574219 24.582031 C 22.265625 24.703125 22.113281 25.050781 22.234375 25.359375 C 22.324219 25.59375 22.550781 25.738281 22.792969 25.738281 Z M 22.792969 25.738281 "/>
<path style=" stroke:none;fill-rule:nonzero;fill:rgb(100%,100%,100%);fill-opacity:1;" d="M 24.351562 28.234375 C 24.425781 28.234375 24.5 28.222656 24.570312 28.195312 C 27.3125 27.128906 29.230469 23.679688 29.230469 19.808594 C 29.230469 16.328125 27.707031 13.1875 25.351562 11.804688 C 25.066406 11.640625 24.699219 11.734375 24.535156 12.019531 C 24.367188 12.304688 24.460938 12.671875 24.746094 12.839844 C 26.746094 14.007812 28.035156 16.746094 28.035156 19.808594 C 28.035156 23.199219 26.429688 26.1875 24.136719 27.078125 C 23.828125 27.199219 23.675781 27.542969 23.796875 27.851562 C 23.886719 28.089844 24.113281 28.234375 24.351562 28.234375 Z M 24.351562 28.234375 "/>
<path style=" stroke:none;fill-rule:nonzero;fill:rgb(100%,100%,100%);fill-opacity:1;" d="M 25.960938 30.613281 C 25.71875 30.613281 25.492188 30.464844 25.398438 30.226562 C 25.277344 29.914062 25.429688 29.566406 25.742188 29.445312 C 28.867188 28.230469 31.050781 24.25 31.050781 19.769531 C 31.050781 15.726562 29.308594 12.09375 26.613281 10.515625 C 26.324219 10.34375 26.226562 9.976562 26.394531 9.6875 C 26.566406 9.398438 26.933594 9.300781 27.222656 9.46875 C 30.28125 11.261719 32.257812 15.304688 32.257812 19.769531 C 32.257812 24.738281 29.757812 29.179688 26.179688 30.570312 C 26.109375 30.597656 26.035156 30.613281 25.960938 30.613281 Z M 25.960938 30.613281 "/>
</g>
</svg>
